<?xml version="1.0" encoding="UTF-8"?>
<svg id="Layer_1" xmlns="http://www.w3.org/2000/svg" version="1.1" viewBox="0 0 438.5 323.04">
  <!-- Generator: Adobe Illustrator 29.4.0, SVG Export Plug-In . SVG Version: 2.1.0 Build 152)  -->
  <defs>
    <style>
      .st0 {
        fill-rule: evenodd;
      }

      .st0, .st1 {
        fill: #fff;
      }
    </style>
  </defs>
  <g id="Frame">
    <path id="Vector" class="st1" d="M-672.1,189.14c0,31.36-24.68,54.48-54.97,54.48s-54.97-23.11-54.97-54.48,24.68-54.48,54.97-54.48,54.97,22.89,54.97,54.48ZM-696.16,189.14c0-19.6-14.31-33.01-30.91-33.01s-30.91,13.41-30.91,33.01,14.31,33.01,30.91,33.01,30.91-13.63,30.91-33.01Z"/>
    <path id="Vector_2" class="st1" d="M-553.51,189.14c0,31.36-24.68,54.48-54.97,54.48s-54.97-23.11-54.97-54.48,24.68-54.48,54.97-54.48,54.97,22.89,54.97,54.48ZM-577.57,189.14c0-19.6-14.31-33.01-30.91-33.01s-30.91,13.41-30.91,33.01,14.31,33.01,30.91,33.01,30.91-13.63,30.91-33.01Z"/>
    <path id="Vector_3" class="st1" d="M-439.86,137.95v97.81c0,40.23-23.87,56.66-52.08,56.66-26.56,0-42.54-17.66-48.57-32.1l20.95-8.67c3.73,8.87,12.87,19.33,27.6,19.33,18.06,0,29.25-11.08,29.25-31.93v-7.84h-.84c-5.39,6.6-15.76,12.38-28.85,12.38-27.4,0-52.5-23.72-52.5-54.25s25.1-54.68,52.5-54.68c13.07,0,23.45,5.77,28.85,12.18h.84v-8.87h22.85v-.02h0ZM-461.01,189.33c0-19.19-12.87-33.21-29.25-33.21s-30.51,14.02-30.51,33.21,13.91,32.81,30.51,32.81,29.25-13.83,29.25-32.81Z"/>
    <path id="Vector_4" class="st1" d="M-402.18,80.63v159.65h-23.48V80.63h23.48Z"/>
    <path id="Vector_5" class="st1" d="M-310.72,207.06l18.68,12.38c-6.03,8.87-20.55,24.14-45.66,24.14-31.14,0-54.39-23.92-54.39-54.48,0-32.39,23.45-54.48,51.69-54.48s42.34,22.5,46.89,34.66l2.5,6.19-73.26,30.16c5.6,10.93,14.33,16.5,26.56,16.5s20.75-6,26.98-15.08h0ZM-368.21,187.47l48.97-20.21c-2.7-6.8-10.8-11.54-20.34-11.54-12.23,0-29.25,10.73-28.64,31.76h0Z"/>
    <path id="Vector_6" class="st1" d="M-870.89,174.96v-23.11h78.34c.77,4.03,1.16,8.79,1.16,13.95,0,17.34-4.77,38.78-20.14,54.06-14.95,15.47-34.04,23.72-59.35,23.72-46.89,0-86.32-37.97-86.32-84.59s39.43-84.59,86.32-84.59c25.94,0,44.42,10.12,58.31,23.31l-16.41,16.31c-9.96-9.29-23.45-16.5-41.93-16.5-34.24,0-61.02,27.44-61.02,61.47s26.78,61.47,61.02,61.47c22.21,0,34.86-8.87,42.96-16.92,6.57-6.54,10.89-15.86,12.6-28.61l-55.57.02h.02Z"/>
  </g>
  <g id="_Group_">
    <path id="_Path_" class="st1" d="M-118.09-788.16c-9.38,0-12.2,4.13-12.2,13.32v15.2h25.14l-2.44,24.77h-22.7v74.86h-30.21v-74.86h-20.26v-24.58h20.26v-14.82c0-25.14,10.13-38.27,38.09-38.27,5.82,0,11.82.38,17.64,1.13v23.26"/>
    <path id="_Compound_Path_" class="st1" d="M-103.08-712.93c0-27.77,13.13-48.78,40.9-48.78,15.01,0,24.2,7.69,28.71,17.45v-15.2H-4.58v99.62h-29.08v-15.01c-4.13,9.57-13.7,17.07-28.71,17.07-27.58,0-40.9-20.83-40.9-48.78M-72.87-706.18c0,14.82,5.44,24.77,19.51,24.77,12.38,0,18.57-9.01,18.57-23.26v-10.13c0-14.26-6.38-23.26-18.57-23.26-14.07,0-19.51,9.76-19.51,24.77,0,0,0,7.13,0,7.13Z"/>
    <path id="_Path_2" class="st1" d="M58.09-761.71c11.63,0,22.89,2.44,28.89,6.75l-6.75,21.39c-6.19-3-13.13-4.5-20.08-4.5-16.32,0-23.45,9.38-23.45,25.52v5.82c0,16.14,7.13,25.52,23.45,25.52,6.94,0,13.88-1.69,20.08-4.69l6.75,21.39c-6,4.13-17.07,6.75-28.89,6.75-35.46,0-51.41-18.95-51.41-49.53v-4.69c0-30.58,15.95-49.72,51.41-49.72"/>
    <path id="_Compound_Path_2" class="st1" d="M90.92-705.99v-8.82c0-28.33,16.14-46.9,48.97-46.9,30.96,0,44.65,18.76,44.65,46.53v15.95h-63.41c.56,13.7,6.75,19.7,23.45,19.7,10.88,0,21.76-2.06,32.08-6l5.44,20.64c-7.88,4.13-24.2,7.32-38.65,7.32-38.27-.19-52.53-19.14-52.53-48.41M121.12-719.12h36.4v-2.44c0-10.88-4.32-19.51-17.64-19.51s-18.76,8.63-18.76,21.95"/>
    <path id="_Compound_Path_3" class="st1" d="M296.36-706.55c0,27.77-13.32,48.78-41.09,48.78-15.01,0-25.52-7.5-29.64-17.07v15.01h-28.52v-149.72l30.21-2.63v66.6c4.32-8.82,14.07-15.95,28.14-15.95,27.58,0,41.09,20.83,41.09,48.78M266.15-713.49c0-14.07-5.44-24.58-19.89-24.58-12.38,0-18.95,8.82-18.95,23.08v10.51c0,14.26,6.75,23.08,18.95,23.08,14.45,0,19.89-10.51,19.89-24.58,0,0,0-7.5,0-7.5Z"/>
    <path id="_Compound_Path_4" class="st1" d="M306.3-707.3v-5.07c0-28.71,16.32-49.34,49.53-49.34s49.53,20.64,49.53,49.34v5.07c0,28.71-16.32,49.34-49.53,49.34s-49.53-20.45-49.53-49.34M375.35-714.43c0-13.13-5.44-23.64-19.51-23.64s-19.51,10.51-19.51,23.64v9.38c0,13.13,5.44,23.64,19.51,23.64s19.51-10.51,19.51-23.64v-9.38Z"/>
    <path id="_Compound_Path_5" class="st1" d="M415.68-707.3v-5.07c0-28.71,16.32-49.34,49.53-49.34s49.53,20.64,49.53,49.34v5.07c0,28.71-16.32,49.34-49.53,49.34s-49.53-20.45-49.53-49.34M484.73-714.43c0-13.13-5.44-23.64-19.51-23.64s-19.51,10.51-19.51,23.64v9.38c0,13.13,5.44,23.64,19.51,23.64s19.51-10.51,19.51-23.64v-9.38Z"/>
    <path id="_Path_3" class="st1" d="M556.21-711.99l29.83-47.65h31.89l-31.14,49.34,32.46,50.47h-32.08l-30.96-48.78v48.78h-30.02v-149.72l30.02-2.81"/>
  </g>
  <g>
    <path class="st1" d="M696-251.71v-16.77h-20.82v-26.07l-.7.21-19.56,5.98-.38.12v19.75h-30.87v-11c0-5.13,1.14-9.05,3.41-11.66,2.24-2.59,5.45-3.9,9.54-3.9,2.94,0,5.98.69,9.05,2.06l.76.35v-17.66l-.36-.13c-2.86-1.03-6.75-1.55-11.56-1.55-6.08,0-11.6,1.32-16.4,3.95-4.82,2.62-8.61,6.36-11.26,11.13-2.65,4.76-3.98,10.25-3.98,16.33v12.1h-14.51v16.77h14.51v70.64h20.81v-70.64h30.87v44.9c0,18.49,8.72,27.85,25.92,27.85,2.82,0,5.8-.33,8.84-.98,3.09-.67,5.2-1.33,6.44-2.04l.27-.17v-16.93l-.85.56c-1.13.75-2.54,1.37-4.18,1.82-1.66.46-3.04.7-4.11.7-4.03,0-7.01-1.08-8.86-3.23-1.87-2.16-2.82-5.95-2.82-11.23v-41.28h20.82-.01ZM541.87-195.97c-7.56,0-13.52-2.5-17.71-7.44-4.22-4.96-6.36-12.03-6.36-21.01s2.15-16.52,6.36-21.57c4.2-5.02,10.1-7.56,17.53-7.56s12.97,2.43,17.08,7.22c4.14,4.83,6.23,12.01,6.23,21.39s-1.98,16.78-5.86,21.66c-3.86,4.84-9.68,7.29-17.28,7.29M542.79-270.59c-14.41,0-25.86,4.22-34.03,12.55-8.15,8.33-12.29,19.86-12.29,34.27s4.04,24.7,12,32.72c7.96,8.02,18.8,12.09,32.21,12.09s25.2-4.28,33.35-12.73c8.15-8.44,12.29-19.86,12.29-33.93s-3.87-24.99-11.54-32.96c-7.65-7.97-18.43-12.01-32-12.01M462.9-270.59c-9.81,0-17.91,2.5-24.11,7.45-6.23,4.97-9.39,11.5-9.39,19.39,0,4.1.68,7.75,2.03,10.85s3.44,5.83,6.22,8.13c2.75,2.28,7.01,4.66,12.66,7.08,4.74,1.95,8.27,3.6,10.52,4.9,2.19,1.28,3.75,2.55,4.64,3.8.86,1.22,1.29,2.9,1.29,4.96,0,5.88-4.4,8.72-13.44,8.72-3.36,0-7.19-.7-11.38-2.09-4.16-1.36-8.09-3.35-11.66-5.91l-.87-.62v20.04l.32.14c2.94,1.36,6.66,2.5,11.04,3.41,4.37.91,8.34,1.36,11.79,1.36,10.64,0,19.21-2.51,25.46-7.5,6.29-5.01,9.48-11.69,9.48-19.86,0-5.89-1.72-10.94-5.1-15.02-3.36-4.04-9.19-7.75-17.33-11.04-6.48-2.6-10.63-4.76-12.35-6.41-1.66-1.6-2.49-3.86-2.49-6.73,0-2.54,1.04-4.58,3.16-6.23,2.15-1.66,5.13-2.5,8.86-2.5,3.47,0,7.02.55,10.55,1.62,3.53,1.07,6.63,2.51,9.21,4.27l.85.58v-19.01l-.32-.14c-2.38-1.03-5.53-1.9-9.36-2.61-3.8-.7-7.26-1.06-10.25-1.06M375.13-195.97c-7.56,0-13.52-2.5-17.71-7.44-4.22-4.96-6.36-12.03-6.36-21.01s2.13-16.52,6.36-21.57c4.2-5.02,10.1-7.56,17.53-7.56s12.96,2.43,17.08,7.22c4.14,4.83,6.23,12.01,6.23,21.39s-1.98,16.78-5.86,21.66c-3.86,4.84-9.68,7.29-17.28,7.29M376.06-270.59c-14.42,0-25.86,4.22-34.03,12.55-8.15,8.33-12.3,19.86-12.3,34.27s4.04,24.7,12,32.72c7.96,8.02,18.8,12.09,32.21,12.09s25.2-4.28,33.35-12.73c8.15-8.44,12.29-19.86,12.29-33.93s-3.87-24.99-11.54-32.96c-7.66-7.97-18.43-12.01-32-12.01M298.15-253.34v-15.14h-20.56v87.41h20.56v-44.72c0-7.6,1.73-13.85,5.13-18.57,3.36-4.66,7.83-7.02,13.3-7.02,1.85,0,3.93.31,6.19.91,2.23.6,3.84,1.25,4.79,1.94l.87.63v-20.73l-.33-.14c-1.92-.81-4.62-1.23-8.06-1.23-5.17,0-9.79,1.66-13.75,4.93-3.48,2.87-5.98,6.82-7.91,11.73h-.21,0ZM240.76-270.59c-9.43,0-17.84,2.03-25.01,6.01-7.18,3.99-12.72,9.7-16.5,16.96-3.75,7.23-5.66,15.7-5.66,25.13,0,8.26,1.85,15.84,5.51,22.52,3.66,6.69,8.83,11.93,15.39,15.55,6.54,3.62,14.11,5.46,22.48,5.46,9.77,0,18.12-1.95,24.8-5.8l.27-.15v-18.84l-.87.63c-3.03,2.21-6.41,3.97-10.06,5.23-3.64,1.26-6.95,1.91-9.86,1.91-8.07,0-14.54-2.53-19.25-7.5-4.71-4.98-7.1-11.98-7.1-20.79s2.49-16.04,7.4-21.34c4.9-5.28,11.38-7.96,19.29-7.96,6.76,0,13.35,2.29,19.57,6.81l.86.63v-19.85l-.27-.15c-2.35-1.31-5.54-2.4-9.51-3.22-3.96-.82-7.82-1.23-11.49-1.23M179.43-268.48h-20.56v87.41h20.56v-87.41ZM169.36-305.71c-3.39,0-6.34,1.16-8.76,3.43-2.43,2.29-3.67,5.17-3.67,8.57s1.22,6.17,3.64,8.4c2.4,2.22,5.35,3.35,8.8,3.35s6.41-1.12,8.84-3.35c2.44-2.23,3.68-5.07,3.68-8.41s-1.2-6.14-3.58-8.49c-2.37-2.34-5.38-3.53-8.94-3.53M118.06-274.93v93.86h20.99v-121.98h-29.05l-36.91,90.6-35.83-90.6H7.04v121.97h19.71v-93.87h.68l37.83,93.87h14.89l37.24-93.86h.68Z"/>
    <path class="st1" d="M-160.79-247.07h-96.74v-96.74h96.74v96.74Z"/>
    <path class="st1" d="M-53.99-247.07h-96.72v-96.74H-53.99v96.74h0Z"/>
    <path class="st1" d="M-160.8-140.23h-96.72v-96.72h96.72v96.72Z"/>
    <path class="st1" d="M-53.99-140.23h-96.72v-96.72H-53.99v96.72h0Z"/>
  </g>
  <path class="st1" d="M71.18,145.4h16.86v53.48c0,28.14-17.98,38.01-44.07,38.01S0,227.02,0,198.88v-51.34c0-1.49.75-2.14,2.24-2.14h16.86v52.64c0,16.86,7.45,23.85,24.88,23.85s24.97-6.99,24.97-23.85v-50.5c0-1.49.75-2.14,2.24-2.14ZM262.09,160.03v22.55h42.67c.75,0,1.02.37.75,1.12l-4.66,11.55c-.47,1.02-1.12,1.49-2.52,1.49h-25.06c-8.2,0-11.18,2.52-11.18,8.01v15.93h57.77c.75,0,1.02.37.75,1.12l-4.84,12.02c-.47,1.02-1.12,1.49-2.52,1.49h-63.26c-4.84,0-6.71-1.68-6.71-5.31v-78.36c0-4.38,2.42-6.24,8.76-6.24h67.83c.75,0,1.02.37.75,1.02l-4.84,12.11c-.47,1.02-1.12,1.49-2.52,1.49h-51.15ZM208.52,210.43c0,17.98-12.67,24.88-30.47,24.88h-47.14c-4.94,0-6.71-1.68-6.71-5.31v-78.36c0-4.38,2.33-6.24,8.76-6.24h38.29c16.77,0,32.98,2.89,32.98,22.83,0,8.57-3.07,15.84-10.44,19.66,10.16,2.7,14.72,11.83,14.72,22.55ZM142.74,182.86h29.91c9.88,0,12.67-3.82,12.67-11.65s-2.8-11.55-12.67-11.55h-29.91v23.2ZM189.6,208.76c0-8.29-2.89-12.39-13.51-12.39h-22.08c-8.2,0-11.27,2.52-11.27,8.01v16.68h33.36c10.62,0,13.51-4.1,13.51-12.3ZM437.44,235.31h-17.14c-1.4,0-1.96-.56-2.52-1.49l-18.17-32.8h-16.68c-8.2,0-11.27,2.52-11.27,8.01v26.27h-16.4c-1.49,0-2.24-.75-2.24-2.14v-81.52c0-4.38,2.42-6.24,8.76-6.24h38.48c22.45,0,35.96,5.87,35.96,27.67,0,16.86-8.11,23.48-18.17,26.09l20.22,34.57c.37.56.37,1.58-.84,1.58ZM417.31,173.45c0-9.13-2.52-13.6-14.26-13.6h-31.4v27.21h31.4c11.74,0,14.26-4.38,14.26-13.6Z"/>
  <path d="M2641.89,178.12c.21,22.96,20.14,30.6,20.36,30.7-.17.54-3.18,10.89-10.5,21.58-6.32,9.24-12.89,18.45-23.23,18.64-10.16.19-13.42-6.02-25.04-6.02s-15.24,5.83-24.86,6.21c-9.98.38-17.58-9.99-23.95-19.2-13.03-18.84-22.98-53.23-9.62-76.44,6.64-11.53,18.51-18.83,31.39-19.02,9.8-.19,19.05,6.59,25.04,6.59s17.23-8.15,29.04-6.96c4.95.21,18.83,2,27.75,15.05-.72.45-16.57,9.67-16.4,28.87M2622.79,121.75c5.3-6.41,8.86-15.34,7.89-24.22-7.64.31-16.87,5.09-22.35,11.5-4.91,5.68-9.21,14.76-8.05,23.47,8.51.66,17.21-4.33,22.51-10.74"/>
  <g>
    <path class="st0" d="M288.36,976.83c-33.25,24.58-81.61,37.68-123.32,37.68-58.43,0-110.82-21.56-150.72-57.43-3.02-2.82-.4-6.65,3.43-4.43,42.92,24.99,95.91,39.9,150.72,39.9,36.87,0,77.58-7.66,115.06-23.58,5.64-2.22,10.28,3.83,4.84,7.86h0Z"/>
    <path class="st0" d="M302.27,960.92c-4.23-5.44-28.21-2.62-38.89-1.21-3.22.4-3.83-2.42-.81-4.43,19.14-13.5,50.37-9.47,54-5.04s-1.01,35.87-18.94,50.78c-2.82,2.22-5.44,1.01-4.23-2.01,4.03-10.07,13.1-32.44,8.87-38.08Z"/>
    <path class="st0" d="M263.98,860.57v-13.1c0-2.01,1.41-3.22,3.22-3.22h58.43c1.81,0,3.43,1.41,3.43,3.22v11.08c0,1.81-1.61,4.23-4.43,8.26l-30.22,43.12c11.28-.2,23.17,1.41,33.25,7.05,2.22,1.21,2.82,3.22,3.02,5.04v13.9c0,2.01-2.01,4.23-4.23,3.02-17.93-9.47-41.91-10.48-61.66.2-2.01,1.01-4.23-1.01-4.23-3.02v-13.3c0-2.01,0-5.64,2.22-8.87l35.06-50.17h-30.43c-1.81,0-3.43-1.41-3.43-3.22h0ZM51,941.77h-17.73c-1.61-.2-3.02-1.41-3.22-3.02v-91.08c0-1.81,1.61-3.22,3.43-3.22h16.52c1.81,0,3.02,1.41,3.22,3.02v11.89h.4c4.23-11.49,12.49-16.93,23.37-16.93s18.13,5.44,22.97,16.93c4.23-11.49,14.1-16.93,24.58-16.93,7.46,0,15.52,3.02,20.55,10.07,5.64,7.66,4.43,18.74,4.43,28.61v57.63c0,1.81-1.61,3.22-3.43,3.22h-17.53c-1.81-.2-3.22-1.61-3.22-3.22v-48.36c0-3.83.4-13.5-.4-17.13-1.41-6.04-5.24-7.86-10.48-7.86-4.23,0-8.87,2.82-10.68,7.46s-1.61,12.29-1.61,17.53v48.36c0,1.81-1.61,3.22-3.43,3.22h-17.73c-1.81-.2-3.22-1.61-3.22-3.22v-48.36c0-10.07,1.61-25.19-10.88-25.19s-12.29,14.51-12.29,25.19v48.36c-.2,1.61-1.61,3.02-3.63,3.02h0ZM379.44,842.43c26.4,0,40.7,22.57,40.7,51.38s-15.72,49.97-40.7,49.97-39.9-22.57-39.9-50.78c-.2-28.41,14.1-50.58,39.9-50.58h0ZM379.44,861.17c-13.1,0-13.9,17.93-13.9,29.02s-.2,34.86,13.7,34.86,14.51-19.14,14.51-30.83c0-7.66-.4-16.93-2.62-24.18-2.01-6.45-6.04-8.87-11.69-8.87h0ZM454.2,941.77h-17.73c-1.81-.2-3.22-1.61-3.22-3.22v-91.28c.2-1.61,1.61-3.02,3.43-3.02h16.52c1.61,0,2.82,1.21,3.22,2.62v13.9h.4c5.04-12.49,11.89-18.34,24.18-18.34,7.86,0,15.72,2.82,20.75,10.68,4.63,7.25,4.63,19.55,4.63,28.41v57.43c-.2,1.61-1.61,2.82-3.43,2.82h-17.73c-1.61-.2-3.02-1.41-3.22-2.82v-49.57c0-10.07,1.21-24.58-11.08-24.58-4.23,0-8.26,2.82-10.28,7.25-2.42,5.64-2.82,11.08-2.82,17.33v49.17c-.2,1.81-1.81,3.22-3.63,3.22h0ZM217.43,898.25c0,6.85.2,12.69-3.22,18.94-2.82,5.04-7.25,8.06-12.29,8.06-6.85,0-10.88-5.24-10.88-12.9,0-15.11,13.5-17.93,26.4-17.93v3.83ZM235.37,941.57c-1.21,1.01-2.82,1.21-4.23.4-5.84-4.84-7.05-7.25-10.28-11.89-9.67,9.87-16.72,12.9-29.22,12.9-14.91,0-26.6-9.27-26.6-27.61,0-14.51,7.86-24.18,18.94-29.02,9.67-4.23,23.17-5.04,33.45-6.25v-2.22c0-4.23.4-9.27-2.22-12.9-2.22-3.22-6.25-4.63-9.87-4.63-6.85,0-12.9,3.43-14.31,10.68-.4,1.61-1.41,3.22-3.02,3.22l-17.13-1.81c-1.41-.4-3.02-1.41-2.62-3.63,4.03-20.96,22.77-27.2,39.7-27.2,8.66,0,19.95,2.22,26.8,8.87,8.66,8.06,7.86,18.94,7.86,30.63v27.61c0,8.26,3.43,11.89,6.65,16.52,1.21,1.61,1.41,3.63,0,4.63-3.83,3.02-10.28,8.66-13.9,11.69h0ZM-15.3,898.25c0,6.85.2,12.69-3.22,18.94-2.82,5.04-7.25,8.06-12.29,8.06-6.85,0-10.88-5.24-10.88-12.9,0-15.11,13.5-17.93,26.4-17.93v3.83ZM2.44,941.57c-1.21,1.01-2.82,1.21-4.23.4-5.84-4.84-7.05-7.25-10.28-11.89-9.67,9.87-16.72,12.9-29.22,12.9-14.91,0-26.6-9.27-26.6-27.61,0-14.51,7.86-24.18,18.94-29.02,9.67-4.23,23.17-5.04,33.45-6.25v-2.22c0-4.23.4-9.27-2.22-12.9-2.22-3.22-6.25-4.63-9.87-4.63-6.85,0-12.9,3.43-14.31,10.68-.4,1.61-1.41,3.22-3.02,3.22l-17.13-1.81c-1.41-.4-3.02-1.41-2.62-3.63,4.03-20.96,22.77-27.2,39.7-27.2,8.66,0,19.95,2.22,26.8,8.87,8.66,8.06,7.86,18.94,7.86,30.63v27.61c0,8.26,3.43,11.89,6.65,16.52,1.21,1.61,1.41,3.63,0,4.63-3.83,3.02-10.28,8.66-13.9,11.69h0Z"/>
  </g>
</svg>